<?xml version="1.0" standalone="no"?>
<!DOCTYPE svg PUBLIC "-//W3C//DTD SVG 20010904//EN"
 "http://www.w3.org/TR/2001/REC-SVG-20010904/DTD/svg10.dtd">
<svg version="1.0" xmlns="http://www.w3.org/2000/svg"
 width="180.000000pt" height="180.000000pt" viewBox="0 0 180.000000 180.000000"
 preserveAspectRatio="xMidYMid meet">
<metadata>
Created by potrace 1.14, written by Peter Selinger 2001-2017
</metadata>
<g transform="translate(0.000000,180.000000) scale(0.100000,-0.100000)"
fill="#000000" stroke="none">
<path d="M781 1730 c-529 -73 -844 -605 -655 -1108 70 -186 241 -364 429 -448
191 -84 452 -86 645 -5 175 73 327 216 410 384 61 124 79 192 87 319 24 391
-230 741 -607 837 -93 23 -224 32 -309 21z m-521 -544 c0 -8 -4 -18 -10 -21
-5 -3 -10 3 -10 14 0 12 5 21 10 21 6 0 10 -6 10 -14z m1273 0 c6 -16 -2 -28
-14 -20 -12 7 -11 34 0 34 5 0 11 -6 14 -14z m-779 -205 c7 -47 52 -96 96
-106 34 -7 37 -22 15 -69 -41 -86 -165 -166 -256 -166 -55 0 -128 31 -136 57
-3 7 20 24 51 40 31 15 56 31 56 35 0 5 -27 -5 -60 -22 -33 -16 -62 -30 -65
-30 -5 0 -16 23 -29 68 -7 21 -6 22 68 22 44 0 76 4 76 10 0 6 -29 10 -68 10
-38 0 -71 2 -74 5 -3 3 -3 17 0 31 5 26 6 26 64 20 33 -4 66 -10 74 -13 8 -3
14 -1 14 5 0 5 -28 15 -61 21 -34 6 -64 13 -67 16 -8 8 39 55 73 72 48 25 76
31 151 32 l71 1 7 -39z m442 28 c48 -12 132 -78 121 -96 -4 -6 -23 -14 -42
-17 -19 -4 -35 -12 -35 -18 0 -5 6 -8 14 -5 8 3 30 9 49 12 33 6 35 5 42 -25
4 -17 4 -34 1 -38 -4 -3 -31 -4 -61 -3 -33 1 -55 -2 -55 -8 0 -5 26 -11 58
-13 51 -3 57 -5 54 -23 -6 -36 -19 -39 -72 -16 -29 12 -54 20 -58 17 -3 -3 21
-17 53 -31 57 -26 57 -26 39 -46 -54 -59 -158 -76 -239 -38 -59 28 -131 93
-155 140 -27 52 -25 66 10 74 44 10 89 59 96 106 l7 39 64 0 c35 0 84 -5 109
-11z m322 -196 c-10 -2 -28 -2 -40 0 -13 2 -5 4 17 4 22 1 32 -1 23 -4z"/>
</g>
</svg>
