<?xml version="1.0" standalone="no"?>
<!DOCTYPE svg PUBLIC "-//W3C//DTD SVG 20010904//EN"
 "http://www.w3.org/TR/2001/REC-SVG-20010904/DTD/svg10.dtd">
<svg version="1.0" xmlns="http://www.w3.org/2000/svg"
 width="555.000000pt" height="555.000000pt" viewBox="0 0 555.000000 555.000000"
 preserveAspectRatio="xMidYMid meet">
<metadata>
Created by potrace 1.14, written by Peter Selinger 2001-2017
</metadata>
<g transform="translate(0.000000,555.000000) scale(0.100000,-0.100000)"
fill="#000000" stroke="none">
<path d="M2111 4879 c-72 -18 -118 -41 -194 -95 -118 -85 -256 -225 -332 -339
-33 -50 -63 -91 -67 -93 -5 -2 -8 -11 -8 -19 0 -14 -2 -15 -17 -1 -20 17 -43
13 -43 -8 0 -8 -6 -14 -12 -15 -90 -5 -263 -77 -495 -206 -52 -28 -64 -32 -69
-20 -3 9 -29 24 -57 35 -29 11 -61 24 -72 28 -35 13 -125 31 -131 25 -3 -3
-24 -7 -47 -8 -63 -4 -159 -57 -228 -124 -105 -104 -132 -198 -96 -344 16 -62
65 -136 99 -147 9 -3 4 -23 -19 -74 -50 -107 -70 -169 -88 -272 -24 -139 -24
-449 1 -562 3 -14 7 -36 10 -50 11 -54 78 -239 111 -305 36 -71 118 -201 133
-210 5 -3 -2 -32 -15 -64 -30 -73 -46 -169 -40 -243 4 -55 41 -233 51 -249 3
-5 6 -26 8 -46 6 -73 27 -105 140 -214 87 -84 298 -195 406 -213 19 -3 53 -9
75 -13 51 -10 427 -9 480 1 22 4 54 10 70 12 25 4 224 46 275 58 90 22 149 40
170 54 14 9 29 15 35 13 10 -3 90 -17 140 -25 125 -20 366 -26 545 -14 l85 6
0 -92 c0 -83 3 -96 26 -132 69 -103 153 -148 274 -147 42 0 185 41 185 53 0 4
6 7 13 7 13 0 86 45 126 78 50 42 144 151 207 240 19 28 24 29 105 31 110 3
183 11 277 30 105 22 111 23 157 29 115 17 199 43 375 118 14 5 30 11 35 12 9
2 42 17 163 71 l53 24 57 -19 c99 -32 191 -9 275 69 42 38 83 106 93 154 14
61 19 118 18 176 -1 36 -3 65 -4 65 -1 0 -3 9 -4 20 -5 45 -39 127 -75 182
-87 134 -371 361 -615 492 -114 61 -257 123 -272 117 -7 -3 -18 2 -26 11 -7 9
-11 17 -9 17 3 1 1 8 -5 16 -5 8 -22 16 -39 17 -48 3 -120 11 -156 16 -19 3
-70 11 -114 17 -44 6 -91 13 -105 16 -14 2 -45 7 -70 10 -25 3 -48 8 -51 10
-4 2 -24 6 -45 9 -22 3 -57 10 -79 15 -175 40 -181 41 -245 49 -4 1 -6 11 -7
24 -2 57 -17 147 -38 227 -29 117 -201 471 -281 581 -40 55 -41 63 -12 109 29
49 64 141 61 165 -5 49 -16 83 -39 122 -27 46 -45 60 -113 84 l-44 15 -32 100
c-32 102 -66 176 -93 207 -8 9 -12 17 -9 17 17 0 -112 134 -189 197 -55 46
-190 111 -244 119 -93 13 -222 10 -289 -7z m247 -42 c148 -10 360 -169 451
-337 21 -39 57 -125 65 -155 1 -5 8 -30 15 -54 12 -41 11 -46 -5 -58 -16 -12
-20 -11 -30 1 -14 20 -428 256 -448 256 -20 0 -21 -34 -3 -52 8 -7 53 -35 100
-63 77 -45 87 -53 88 -80 3 -79 5 -101 10 -110 3 -6 6 -24 8 -42 3 -34 16 -29
-143 -60 -36 -7 -221 -6 -261 1 -16 2 -55 8 -85 11 -30 4 -95 18 -145 31 -49
14 -99 27 -110 29 -36 8 -139 44 -180 61 -22 10 -42 18 -45 19 -16 3 -100 45
-100 50 0 3 12 23 28 44 15 21 34 49 42 61 109 164 294 340 422 403 58 28 76
34 138 44 19 3 36 6 38 7 1 2 21 1 45 0 23 -2 70 -5 105 -7z m363 -592 c39
-24 77 -46 83 -48 7 -3 2 -14 -11 -28 -33 -36 -63 -109 -63 -154 0 -70 59
-169 120 -200 47 -24 133 -36 163 -22 9 4 17 4 17 -1 0 -5 18 -37 40 -71 84
-130 223 -418 240 -496 1 -5 5 -14 10 -20 9 -12 39 -130 47 -188 16 -114 0
-384 -28 -491 -15 -57 -99 -217 -173 -331 -41 -63 -157 -183 -223 -232 -21
-15 -47 -36 -58 -45 -11 -10 -60 -47 -110 -82 -49 -36 -99 -73 -110 -82 -36
-29 -238 -121 -325 -147 -106 -32 -207 -58 -240 -63 -14 -2 -41 -6 -60 -10
-19 -3 -44 -8 -55 -9 -11 -1 -20 -3 -20 -4 0 -11 -274 -17 -370 -9 -86 8 -216
51 -272 89 -52 36 -50 32 -58 104 -3 33 -8 69 -10 80 -3 11 -7 31 -9 45 -2 14
-9 45 -16 70 -7 25 -14 54 -16 65 -2 11 -8 31 -14 45 -5 14 -11 34 -13 45 -5
23 -9 36 -45 125 -23 60 -103 124 -178 145 -16 5 -36 10 -44 13 -31 9 -156 2
-193 -11 -54 -19 -117 -76 -162 -142 -20 -31 -41 -53 -45 -48 -19 19 -110 173
-103 173 5 0 3 4 -3 8 -14 9 -78 170 -98 247 -34 133 -40 184 -40 350 0 247
26 378 111 554 135 281 269 414 593 590 156 85 318 160 403 186 l88 28 22 -21
c23 -21 136 -79 197 -101 19 -7 44 -17 55 -22 20 -8 157 -49 185 -54 8 -2 16
-4 18 -4 1 -1 4 -1 7 -2 2 0 19 -5 37 -10 18 -6 47 -12 63 -15 17 -2 41 -7 55
-10 72 -17 288 -23 375 -11 135 19 201 47 190 80 -2 7 -6 30 -9 52 -3 22 -9
61 -14 88 -5 26 -8 47 -7 47 2 0 36 -20 76 -45z m244 -76 c3 -4 12 -6 20 -3
21 9 70 -24 88 -60 26 -51 27 -89 1 -152 -33 -82 -53 -99 -113 -97 -77 2 -114
28 -149 104 -37 80 1 167 91 214 23 12 53 9 62 -6z m-2220 -94 c52 -18 98 -45
78 -45 -6 0 -52 -27 -101 -59 -106 -71 -207 -175 -286 -294 -32 -48 -60 -87
-62 -87 -12 0 -57 86 -70 131 -20 76 -17 116 10 174 36 77 149 178 213 190 10
2 18 4 18 5 0 1 16 4 35 7 19 2 36 6 38 7 5 5 76 -11 127 -29z m2754 -1225
c51 -14 271 -61 305 -66 15 -2 35 -6 45 -8 9 -3 39 -8 66 -12 28 -3 59 -8 70
-10 11 -3 43 -7 70 -9 28 -3 61 -7 75 -10 14 -3 48 -8 75 -11 28 -3 59 -6 70
-8 11 -2 25 -4 31 -5 6 0 11 -7 12 -13 0 -7 3 -24 7 -38 24 -101 25 -657 1
-776 -2 -12 -7 -37 -10 -55 -3 -19 -8 -45 -11 -59 -4 -14 -8 -38 -11 -53 -7
-39 -49 -175 -66 -217 -8 -19 -16 -39 -18 -45 -6 -22 -13 -43 -38 -110 -14
-38 -26 -71 -27 -72 -1 -2 -40 -10 -95 -19 -19 -3 -37 -7 -40 -9 -4 -2 -152
-16 -190 -17 -19 -1 -20 5 -6 27 9 14 32 62 50 107 19 46 42 101 51 123 21 49
38 88 40 95 1 3 4 12 8 20 12 30 33 120 43 180 3 19 7 42 9 50 2 8 7 38 11 65
3 28 8 59 10 70 6 29 17 126 18 154 1 13 -7 28 -16 35 -26 16 -45 -9 -53 -69
-3 -27 -11 -81 -16 -120 -6 -38 -12 -81 -14 -95 -4 -28 -10 -63 -24 -135 -10
-50 -57 -191 -70 -210 -4 -5 -16 -32 -26 -60 -22 -61 -93 -215 -100 -215 -2 0
-32 20 -67 44 -35 24 -83 53 -107 66 -42 21 -55 25 -111 36 -14 2 -31 7 -37 9
-39 14 -219 24 -254 14 -15 -4 -31 -4 -36 0 -5 3 15 52 46 111 88 166 128 267
147 380 3 14 11 57 19 97 21 101 19 158 -4 180 -32 30 -36 98 -9 152 13 25 28
49 33 53 6 4 7 8 3 8 -4 0 2 18 13 40 11 21 22 45 23 52 1 7 5 22 9 33 12 36
28 182 30 283 2 57 4 59 66 42z m1035 -259 c117 -58 317 -177 336 -201 3 -3
21 -17 40 -30 69 -49 92 -73 87 -98 -2 -12 -1 -24 2 -27 14 -8 1 -213 -18
-280 -5 -19 -7 -35 -4 -35 3 0 0 -7 -7 -15 -7 -8 -10 -15 -6 -15 3 0 -4 -24
-15 -52 -38 -97 -78 -173 -113 -211 l-34 -37 -48 27 c-27 15 -50 31 -52 35 -2
4 -8 8 -13 8 -5 0 -39 18 -74 41 -36 22 -73 39 -82 37 -22 -4 -29 -41 -10 -56
22 -19 230 -142 239 -142 4 0 8 -5 8 -11 0 -5 4 -8 8 -5 4 2 19 -4 32 -14 l25
-19 -40 -16 c-22 -9 -49 -20 -60 -25 -88 -39 -191 -80 -202 -80 -7 0 -13 -4
-13 -10 0 -5 -3 -9 -7 -8 -5 1 -37 -7 -73 -19 -36 -12 -81 -25 -100 -29 -132
-28 -133 -29 -122 -8 16 28 100 268 106 301 2 10 9 38 16 62 6 25 13 56 15 70
2 14 4 27 6 29 2 2 3 6 12 54 4 20 10 63 13 95 3 32 7 74 9 93 9 91 2 514 -10
608 -3 28 -3 52 1 52 4 0 71 -31 148 -69z m-3574 -329 c54 -23 110 -68 110
-88 0 -8 4 -14 8 -14 7 0 25 -46 38 -95 1 -5 14 -50 29 -99 14 -49 28 -101 30
-115 2 -14 6 -37 9 -51 13 -63 14 -80 7 -84 -34 -22 -278 -23 -361 -2 -36 9
-72 18 -81 21 -25 5 -180 71 -227 95 -38 20 -41 24 -30 43 6 12 10 23 9 25 -7
8 16 77 50 149 67 140 143 218 228 233 57 11 132 3 181 -18z m4271 -213 c47
-93 58 -144 55 -252 -3 -87 -8 -112 -30 -159 -29 -62 -69 -101 -131 -129 -62
-29 -103 -23 -225 29 l-40 17 31 35 c42 48 113 198 138 293 23 89 33 161 36
267 2 41 3 77 4 80 4 12 142 -143 162 -181z m-1958 68 c10 -46 12 -78 6 -99
-4 -17 -6 -35 -3 -39 3 -5 1 -9 -5 -9 -5 0 -31 25 -57 56 -34 40 -45 59 -38
69 5 7 23 33 39 58 17 25 33 42 36 39 4 -4 14 -38 22 -75z m-100 -137 c69 -88
82 -114 67 -135 -3 -5 -12 -30 -19 -55 -7 -25 -22 -62 -32 -82 -16 -32 -25
-38 -52 -39 -17 -1 -43 -2 -57 -4 -140 -16 -368 -25 -412 -16 l-33 7 50 34
c99 68 321 240 380 294 l60 55 18 -22 c10 -12 23 -29 30 -37z m-2473 -295 c25
-9 61 -21 80 -26 19 -5 44 -12 55 -15 11 -3 66 -7 122 -9 56 -2 106 -6 112
-10 6 -3 11 -1 11 5 0 6 3 9 8 7 4 -3 31 -1 60 2 28 4 53 5 53 2 1 -5 6 -124
8 -192 1 -30 24 -44 50 -30 14 8 17 22 16 70 -1 34 2 61 5 61 3 0 14 -6 25
-14 51 -35 180 -75 287 -90 24 -4 49 -18 75 -43 21 -21 47 -44 58 -50 11 -7
39 -24 61 -38 23 -14 91 -46 150 -70 60 -25 106 -45 102 -46 -11 -2 -18 -4
-68 -18 -25 -7 -56 -15 -70 -18 -14 -2 -41 -8 -60 -13 -19 -5 -47 -11 -63 -14
-15 -3 -35 -7 -45 -10 -9 -3 -33 -8 -52 -10 -19 -3 -45 -7 -58 -10 -85 -19
-335 -27 -442 -14 -121 14 -138 17 -200 38 -149 50 -296 147 -398 261 -26 30
-70 194 -88 326 -2 18 -4 36 -5 40 -4 21 7 19 84 -17 45 -21 102 -46 127 -55z
m1876 -74 c23 -23 219 -31 419 -17 55 4 108 9 118 12 26 8 21 -9 -24 -91 -45
-83 -79 -116 -109 -108 -11 3 -20 1 -20 -4 0 -6 -28 -18 -62 -28 -35 -10 -82
-27 -105 -36 l-42 -18 -21 29 c-11 15 -20 35 -20 44 0 9 -4 16 -10 16 -5 0
-10 9 -10 20 0 24 -34 43 -63 34 -12 -3 -66 -33 -120 -65 -54 -33 -101 -59
-106 -59 -4 0 -29 30 -56 68 -27 37 -58 76 -67 86 -18 19 -16 20 69 46 49 15
115 38 148 53 69 30 68 30 81 18z m-320 -168 c21 -32 41 -60 44 -63 4 -3 15
-21 25 -40 33 -64 80 -79 135 -40 23 16 88 54 148 86 23 12 25 9 56 -49 25
-50 38 -64 66 -73 21 -7 40 -8 50 -2 22 13 210 76 206 69 -19 -39 -46 -103
-46 -110 0 -19 -80 -25 -335 -26 -309 0 -418 19 -650 113 -105 42 -244 117
-234 126 2 2 54 6 114 9 61 4 121 9 135 12 13 2 42 7 65 10 22 3 47 8 55 10 8
2 31 7 50 10 19 3 36 8 39 11 16 16 44 -3 77 -53z m1099 -87 c17 -3 47 -8 68
-11 78 -11 267 -120 267 -154 0 -21 -90 -139 -157 -206 -94 -95 -296 -189
-336 -157 -7 6 -28 12 -48 15 -63 8 -126 53 -156 112 -17 31 -20 111 -8 175 4
19 8 41 8 47 0 7 19 50 41 95 36 72 45 82 71 86 16 2 31 5 32 6 5 4 186 -2
218 -8z"/>
<path d="M2588 3674 c-5 -5 -242 -88 -383 -135 -115 -38 -130 -46 -143 -74
-13 -27 -7 -35 25 -35 23 0 124 31 178 55 28 12 129 48 295 105 73 25 108 54
87 74 -12 12 -51 19 -59 10z"/>
<path d="M2413 3315 c-20 -8 -39 -28 -49 -48 -15 -32 -15 -37 0 -69 39 -82
169 -85 196 -4 18 57 4 94 -47 120 -39 19 -58 20 -100 1z"/>
<path d="M1227 3196 c-70 -24 -142 -51 -160 -59 -18 -9 -52 -23 -77 -33 -57
-22 -149 -71 -164 -87 -18 -20 -17 -36 3 -47 15 -7 36 -2 98 27 43 20 80 37
83 38 3 1 16 6 30 12 75 33 230 91 230 87 0 -3 9 0 21 6 11 6 30 13 41 15 11
3 31 11 44 20 19 12 22 20 15 38 -5 12 -14 23 -22 24 -8 1 -72 -17 -142 -41z"/>
<path d="M1225 2873 c-44 -23 -66 -45 -61 -60 3 -7 2 -13 -3 -13 -14 0 21 -90
39 -100 35 -19 87 -19 118 0 26 16 50 58 47 85 -5 44 -19 73 -44 88 -36 21
-57 21 -96 0z"/>
<path d="M2258 2855 c-2 -2 -20 -6 -41 -9 -21 -3 -57 -16 -79 -27 -36 -18 -47
-20 -73 -10 -49 17 -93 13 -155 -15 -46 -20 -61 -34 -76 -64 -16 -33 -28 -42
-75 -60 -135 -49 -217 -234 -158 -357 25 -52 47 -77 94 -108 40 -26 165 -31
230 -8 55 18 146 99 170 150 10 21 19 39 20 41 1 1 26 -6 56 -16 54 -18 82
-20 150 -9 90 15 143 52 175 121 28 60 30 117 9 201 -24 92 -77 147 -154 162
-34 6 -90 11 -93 8z m112 -83 c61 -30 103 -153 79 -236 -28 -96 -171 -141
-287 -90 -88 39 -109 31 -123 -42 -16 -83 -108 -152 -213 -159 -99 -6 -174 57
-184 154 -2 30 0 51 7 55 6 4 11 15 11 25 0 10 14 38 30 63 38 57 135 111 154
86 26 -35 137 -75 176 -63 21 7 59 54 65 82 2 10 8 29 13 43 10 27 12 34 12
50 0 6 4 10 9 10 5 0 26 8 47 17 22 9 48 18 58 20 11 2 21 5 23 7 8 8 92 -7
123 -22z"/>
</g>
</svg>
